# xmcd
#
# Track frame offsets: 
#        225
#        18714
#        33200
#        61538
#        78090
#        91489
#        112008
#        124609
#        139301
#        156251
#        180013
#        194750
#        206082
#        222680
#        240571
#        266847
#        280579
#        294350
#        307584
#        320064
#
# Disc length: 4458 seconds
#
# Revision: 0
# Processed by: cddbd v1.5.2PL0 Copyright (c) Steve Scherf et al.
# Submitted via: ExactAudioCopyFreeDBPlugin 1.0
#
DISCID=1f116714
DTITLE=Foundations Flac - Everyone압 A Winner
DYEAR=2001
DGENRE=Soul
TTITLE0=Everyone압 A Winnerack01
TTITLE1=I았e Never Found A Girl
TTITLE2=On Broadway
TTITLE3=Together
TTITLE4=Mountain Over The Hill
TTITLE5=Tender Touch
TTITLE6=Baby, Now That I았e Found You
TTITLE7=Point Of Return
TTITLE8=Burning Love
TTITLE9=Same Sad Feeling
TTITLE10=Nobody Loves Me Like You Do
TTITLE11=Time Alone
TTITLE12=Bring Back
TTITLE13=(SittinOn The Dock Of The Bay
TTITLE14=Let This Love Last Forever
TTITLE15=Born To Live, Born to Die
TTITLE16=Build Me Up Buttercup
TTITLE17=New Direktions
TTITLE18=Back On My Feet Again
TTITLE19=Knock on Wood
EXTD=
EXTT0=
EXTT1=
EXTT2=
EXTT3=
EXTT4=
EXTT5=
EXTT6=
EXTT7=
EXTT8=
EXTT9=
EXTT10=
EXTT11=
EXTT12=
EXTT13=
EXTT14=
EXTT15=
EXTT16=
EXTT17=
EXTT18=
EXTT19=
PLAYORDER=
